<svg xmlns="http://www.w3.org/2000/svg" width="888" height="45" viewBox="0 0 888 45"><g transform="translate(0.5,0.5)" text-anchor="middle" font-size="9" font-family="sans-serif" font-weight="normal"><g transform="translate(4,14)"><g stroke="black" stroke-width="1" stroke-linecap="round"><line x2="879"/><line x2="879" y1="28" y2="28"/><line y2="28"/><line x1="879" x2="879" y2="28"/><line x1="852" x2="852" y2="3"/><line x1="852" x2="852" y1="28" y2="25"/><line x1="824" x2="824" y2="3"/><line x1="824" x2="824" y1="28" y2="25"/><line x1="797" x2="797" y2="3"/><line x1="797" x2="797" y1="28" y2="25"/><line x1="769" x2="769" y2="3"/><line x1="769" x2="769" y1="28" y2="25"/><line x1="742" x2="742" y2="3"/><line x1="742" x2="742" y1="28" y2="25"/><line x1="714" x2="714" y2="3"/><line x1="714" x2="714" y1="28" y2="25"/><line x1="687" x2="687" y2="3"/><line x1="687" x2="687" y1="28" y2="25"/><line x1="659" x2="659" y2="3"/><line x1="659" x2="659" y1="28" y2="25"/><line x1="632" x2="632" y2="3"/><line x1="632" x2="632" y1="28" y2="25"/><line x1="604" x2="604" y2="3"/><line x1="604" x2="604" y1="28" y2="25"/><line x1="577" x2="577" y2="3"/><line x1="577" x2="577" y1="28" y2="25"/><line x1="549" x2="549" y2="3"/><line x1="549" x2="549" y1="28" y2="25"/><line x1="522" x2="522" y2="3"/><line x1="522" x2="522" y1="28" y2="25"/><line x1="494" x2="494" y2="3"/><line x1="494" x2="494" y1="28" y2="25"/><line x1="467" x2="467" y2="3"/><line x1="467" x2="467" y1="28" y2="25"/><line x1="440" x2="440" y2="28"/><line x1="412" x2="412" y2="3"/><line x1="412" x2="412" y1="28" y2="25"/><line x1="385" x2="385" y2="3"/><line x1="385" x2="385" y1="28" y2="25"/><line x1="357" x2="357" y2="3"/><line x1="357" x2="357" y1="28" y2="25"/><line x1="330" x2="330" y2="3"/><line x1="330" x2="330" y1="28" y2="25"/><line x1="302" x2="302" y2="3"/><line x1="302" x2="302" y1="28" y2="25"/><line x1="275" x2="275" y2="3"/><line x1="275" x2="275" y1="28" y2="25"/><line x1="247" x2="247" y2="3"/><line x1="247" x2="247" y1="28" y2="25"/><line x1="220" x2="220" y2="3"/><line x1="220" x2="220" y1="28" y2="25"/><line x1="192" x2="192" y2="3"/><line x1="192" x2="192" y1="28" y2="25"/><line x1="165" x2="165" y2="3"/><line x1="165" x2="165" y1="28" y2="25"/><line x1="137" x2="137" y2="3"/><line x1="137" x2="137" y1="28" y2="25"/><line x1="110" x2="110" y2="3"/><line x1="110" x2="110" y1="28" y2="25"/><line x1="82" x2="82" y2="3"/><line x1="82" x2="82" y1="28" y2="25"/><line x1="55" x2="55" y2="3"/><line x1="55" x2="55" y1="28" y2="25"/><line x1="27" x2="27" y2="3"/><line x1="27" x2="27" y1="28" y2="25"/></g><g><g/><g transform="translate(14,-9)"><g transform="translate(852)"><text y="6">0</text></g><g transform="translate(440)"><text y="6">15</text></g><g transform="translate(412)"><text y="6">16</text></g><g transform="translate(0)"><text y="6">31</text></g></g><g transform="translate(14,11)"><g transform="translate(646)"><text y="6"><tspan># Rows</tspan></text></g><g transform="translate(206)"><text y="6"><tspan># Entries</tspan></text></g></g><g transform="translate(14,32)"/></g></g></g></svg>